<?xml version="1.0" encoding="UTF-8"?>
<svg xmlns="http://www.w3.org/2000/svg" version="1.1" viewBox="0 0 180 107.9">
  <defs>
    <style>
      .cls-1 {
        fill: #d41367;
      }

      .cls-2 {
        fill: #ffcd00;
      }

      .cls-3 {
        fill: #00a7e1;
      }
    </style>
  </defs>
  <!-- Generator: Adobe Illustrator 28.7.10, SVG Export Plug-In . SVG Version: 1.2.0 Build 236)  -->
  <g>
    <g id="Layer_1">
      <g>
        <path class="cls-1" d="M53,76.3c-1.9.5-3.8.7-5.8.7-13.3,0-24.1-10.8-24.1-24.1s10.8-24.1,24.1-24.1,4,.2,5.9.7c2.8-4.7,6.6-9,11-12.4-5.2-2.5-10.9-3.8-16.9-3.8C25.4,13.2,7.6,31,7.6,52.9s17.8,39.6,39.6,39.6,11.6-1.4,16.8-3.8c-4.4-3.5-8.2-7.7-11.1-12.4Z"/>
        <path class="cls-2" d="M124.1,20.6l8.6,8.6c3.1-.1,6.5.3,9.8,1.4.6.2,1.2.5,1.8.7,4.4,1.9,8,5.2,10.4,9.3l1.1,1.9,14-7.9-1.1-1.9c-4-7.2-10.4-12.9-18-16.2-1.1-.5-2.1-.8-3-1.2-10.1-3.4-20.2-2.9-28.9.7,1.8,1.4,3.6,2.8,5.3,4.5Z"/>
        <path class="cls-2" d="M124.5,39.6l-11.9,11.9,36.6,19.1c-5,4.4-11.8,6.4-18.3,5.7-1.9,3.2-4.2,6.1-6.8,8.8-1.7,1.7-3.6,3.2-5.5,4.6.7.3,1.4.6,2.1.8,4.1,1.4,8.5,2.2,12.8,2.2,13.2,0,25.5-6.5,32.9-17.4.8-1.1,1.5-2.3,2.1-3.5l3.9-7.2-47.9-25Z"/>
        <path class="cls-3" d="M112.3,65.5c-1,1.6-2.1,3-3.4,4.4-6.6,6.6-16,8.5-24.4,5.8-1-.3-2-.7-2.9-1.1-.1,0-.2,0-.4-.1h0c-4.8-2.4-8.6-6.2-11-11h0c0,0,0-.2-.1-.3-.4-.9-.8-1.9-1.2-2.9,0-.1,0-.3-.1-.4-.7-2.2-1.1-4.5-1.1-6.9s.2-1.9.3-2.8c.6-5.2,2.8-10.2,6.8-14.2,7.5-7.5,18.7-9,27.7-4.6l-19.4,19.4,3.8,18.2,38.5-38.5-5.5-5.5c-15.5-15.5-40.6-15.5-56.1,0-12,12-14.6,29.7-8.1,44.3,0,0,0,0,0,0,4.1,9,11.4,16.2,20.5,20.1,14.5,6.2,31.8,3.4,43.6-8.4,3.5-3.5,6.3-7.6,8.2-12l-15.8-3.3Z"/>
      </g>
    </g>
  </g>
</svg>