<?xml version="1.0" encoding="UTF-8"?>
<svg xmlns="http://www.w3.org/2000/svg" version="1.1" viewBox="0 0 382.1 215.8">
  <defs>
    <style>
      .cls-1 {
        fill: #221c35;
      }

      .cls-2 {
        fill: #d41367;
      }

      .cls-3 {
        fill: #ffcd00;
      }

      .cls-4 {
        fill: #00a7e1;
      }
    </style>
  </defs>
  <!-- Generator: Adobe Illustrator 28.7.10, SVG Export Plug-In . SVG Version: 1.2.0 Build 236)  -->
  <g>
    <g id="Layer_1">
      <g>
        <g>
          <path class="cls-1" d="M59.5,180.2c-6.5,0-12.5-3.4-15-8.7-2.4,5.3-8.5,8.7-15,8.7-9.9,0-16.5-6.8-16.5-16.9v-23.5h8.7v23.1c0,5.6,3.7,9.1,9.3,9.1s9.3-3.5,9.3-9.1v-23.1h8.7v23.1c0,5.6,3.8,9.1,9.5,9.1s9-3.5,9-9.1v-23.1h8.7v23.5c0,10.2-6.5,16.9-16.4,16.9Z"/>
          <path class="cls-1" d="M125.2,139.8v40h-8.6v-6.8c-2.9,4.6-7.7,7.1-14,7.1-11.5,0-19.2-8.3-19.2-20.5s7.6-20.2,18.9-20.2c6.5,0,11.4,2.5,14.3,7.1v-6.8h8.6ZM116.6,161.4v-2.9c-.7-6.9-5.4-11.7-12.2-11.7s-12.3,5.5-12.3,13.2c0,7.6,5,13,12.3,13s11.5-4.7,12.2-11.6Z"/>
          <path class="cls-1" d="M160.5,139.5v8.3c-8-.5-13.2,4.3-13.8,11.1v20.9h-8.7v-40h8.7v8c2.7-5.4,7.5-8.3,13.8-8.3Z"/>
          <path class="cls-1" d="M190.1,139.5v8.3c-8-.5-13.2,4.3-13.8,11.1v20.9h-8.7v-40h8.7v8c2.7-5.4,7.5-8.3,13.8-8.3Z"/>
          <path class="cls-1" d="M235.2,139.8v40h-8.6v-6.8c-2.9,4.6-7.7,7.1-14,7.1-11.5,0-19.2-8.3-19.2-20.5s7.6-20.2,18.9-20.2c6.5,0,11.4,2.5,14.3,7.1v-6.8h8.6ZM226.7,161.4v-2.9c-.7-6.9-5.4-11.7-12.2-11.7s-12.3,5.5-12.3,13.2c0,7.6,5,13,12.3,13s11.5-4.7,12.2-11.6Z"/>
          <path class="cls-1" d="M286.3,154.9v24.9h-8.7v-22.5c0-6-3.6-9.7-9.6-9.7-6.6,0-10.8,4.7-11.4,10.9v21.3h-8.7v-40h8.7v7.7c2.9-5.6,8-8,14.7-8s14.9,5.9,14.9,15.4Z"/>
          <path class="cls-1" d="M318,177.3c-3.2,1.9-6.5,2.9-9.6,2.9-6.3,0-11.4-4.4-11.4-13.1v-36.8h8.6v11h11.8v6.5h-11.8v17.8c0,4.7,1.6,6.8,4.4,6.8s3.5-.5,5.9-1.7l2.2,6.6Z"/>
          <path class="cls-1" d="M362.9,139.8v35.7c0,11.7-7.8,19.3-20,19.2-6-.2-12.8-2.5-17-6l2.3-6.3c3.7,2.9,9,5,13.8,5.1,7.6,0,12.3-4.6,12.3-12.1v-5.8c-2.6,4.6-7,6.8-13.3,6.9-10.1,0-16.3-5.9-16.3-15.5v-21.2h8.7v18.7c0,6.1,3.6,9.8,9.6,9.8,7.1,0,11.4-5.1,11.4-13.2v-15.3h8.6Z"/>
        </g>
        <g>
          <path class="cls-2" d="M150.9,76.3c-1.9.5-3.8.7-5.8.7-13.3,0-24.1-10.8-24.1-24.1s10.8-24.1,24.1-24.1,4,.2,5.9.7c2.8-4.7,6.6-9,11-12.4-5.2-2.5-10.9-3.8-16.9-3.8-21.9,0-39.6,17.8-39.6,39.6s17.8,39.6,39.6,39.6,11.6-1.4,16.8-3.8c-4.4-3.5-8.2-7.7-11.1-12.4Z"/>
          <path class="cls-3" d="M222,20.6l8.6,8.6c3.1-.1,6.5.3,9.8,1.4.6.2,1.2.5,1.8.7,4.4,1.9,8,5.2,10.4,9.3l1.1,1.9,14-7.9-1.1-1.9c-4-7.2-10.4-12.9-18-16.2-1.1-.5-2.1-.8-3-1.2-10.1-3.4-20.2-2.9-28.9.7,1.8,1.4,3.6,2.8,5.3,4.5Z"/>
          <path class="cls-3" d="M222.4,39.6l-11.9,11.9,36.6,19.1c-5,4.4-11.8,6.4-18.3,5.7-1.9,3.2-4.2,6.1-6.8,8.8-1.7,1.7-3.6,3.2-5.5,4.6.7.3,1.4.6,2.1.8,4.1,1.4,8.5,2.2,12.8,2.2,13.2,0,25.5-6.5,32.9-17.4.8-1.1,1.5-2.3,2.1-3.5l3.9-7.2-47.9-25Z"/>
          <path class="cls-4" d="M210.2,65.5c-1,1.6-2.1,3-3.4,4.4-6.6,6.6-16,8.5-24.4,5.8-1-.3-2-.7-2.9-1.1-.1,0-.2,0-.4-.1h0c-4.8-2.4-8.6-6.2-11-11h0c0,0,0-.2-.1-.3-.4-.9-.8-1.9-1.2-2.9,0-.1,0-.3-.1-.4-.7-2.2-1.1-4.5-1.1-6.9s.2-1.9.3-2.8c.6-5.2,2.8-10.2,6.8-14.2,7.5-7.5,18.7-9,27.7-4.6l-19.4,19.4,3.8,18.2,38.5-38.5-5.5-5.5c-15.5-15.5-40.6-15.5-56.1,0-12,12-14.6,29.7-8.1,44.3,0,0,0,0,0,0,4.1,9,11.4,16.2,20.5,20.1,14.5,6.2,31.8,3.4,43.6-8.4,3.5-3.5,6.3-7.6,8.2-12l-15.8-3.3Z"/>
        </g>
      </g>
    </g>
  </g>
</svg>